<svg xmlns="http://www.w3.org/2000/svg" width="174.778" height="116.154" viewBox="0 0 174.778 116.154">
  <g id="SLUHN_Logo" transform="translate(0.5)" style="mix-blend-mode: normal;isolation: isolate">
    <path id="Name" d="M62.641,102.2a1.774,1.774,0,0,1-.774-1.421H62.94a1.2,1.2,0,0,0,.3.651,1.931,1.931,0,0,0,2.714-.5,4.826,4.826,0,0,0,.2-1.8,2.059,2.059,0,0,1-.761.715,2.73,2.73,0,0,1-2.962-.489,3.185,3.185,0,0,1-.765-2.394,3.623,3.623,0,0,1,.771-2.461,2.379,2.379,0,0,1,1.86-.885,2.286,2.286,0,0,1,1.289.363,2.922,2.922,0,0,1,.609.6v-.79h.973v5.707a4.2,4.2,0,0,1-.352,1.886,2.524,2.524,0,0,1-2.479,1.277A3.041,3.041,0,0,1,62.641,102.2Zm.334-6.612a4.078,4.078,0,0,0-.217,1.459,2.589,2.589,0,0,0,.43,1.614,1.389,1.389,0,0,0,1.157.554,1.625,1.625,0,0,0,1.6-1.026,3.305,3.305,0,0,0,.257-1.354,2.616,2.616,0,0,0-.481-1.728,1.538,1.538,0,0,0-1.225-.562A1.512,1.512,0,0,0,62.975,95.588ZM99.013,99.6a2.4,2.4,0,0,1-.624-1.573H99.4a1.532,1.532,0,0,0,.264.808,1.655,1.655,0,0,0,1.382.509,2.036,2.036,0,0,0,1.031-.255.846.846,0,0,0,.445-.788.673.673,0,0,0-.357-.616,4.286,4.286,0,0,0-.9-.3l-.838-.211a4.11,4.11,0,0,1-1.183-.445,1.332,1.332,0,0,1-.68-1.184,1.81,1.81,0,0,1,.642-1.442,2.558,2.558,0,0,1,1.725-.551,2.393,2.393,0,0,1,2.045.832,1.807,1.807,0,0,1,.382,1.137h-1a1.222,1.222,0,0,0-.252-.651,1.608,1.608,0,0,0-1.26-.416,1.5,1.5,0,0,0-.905.229.715.715,0,0,0-.308.6.742.742,0,0,0,.405.656,2.416,2.416,0,0,0,.691.258l.7.17a5.382,5.382,0,0,1,1.523.533,1.413,1.413,0,0,1,.616,1.272,1.939,1.939,0,0,1-.635,1.447,2.71,2.71,0,0,1-1.937.609A2.6,2.6,0,0,1,99.013,99.6Zm-20,0a2.408,2.408,0,0,1-.625-1.573H79.4a1.54,1.54,0,0,0,.264.808,1.658,1.658,0,0,0,1.383.509,2.038,2.038,0,0,0,1.031-.255.846.846,0,0,0,.446-.788.674.674,0,0,0-.358-.616,4.273,4.273,0,0,0-.9-.3l-.838-.211a4.1,4.1,0,0,1-1.184-.445,1.331,1.331,0,0,1-.68-1.184,1.81,1.81,0,0,1,.642-1.442,2.562,2.562,0,0,1,1.726-.551,2.4,2.4,0,0,1,2.045.832,1.8,1.8,0,0,1,.381,1.137h-1a1.215,1.215,0,0,0-.252-.651,1.606,1.606,0,0,0-1.259-.416,1.5,1.5,0,0,0-.905.229.715.715,0,0,0-.308.6.743.743,0,0,0,.4.656,2.438,2.438,0,0,0,.691.258l.7.17a5.4,5.4,0,0,1,1.524.533,1.412,1.412,0,0,1,.615,1.272,1.936,1.936,0,0,1-.635,1.447,2.708,2.708,0,0,1-1.937.609A2.6,2.6,0,0,1,79.009,99.6Zm49.432-.264a3.449,3.449,0,0,1-.768-2.347,4.051,4.051,0,0,1,.7-2.376,2.292,2.292,0,0,1,2-1,2.237,2.237,0,0,1,1.207.3,2.837,2.837,0,0,1,.639.616v-3.17h1.013V100h-.949v-.873a2.281,2.281,0,0,1-.874.838,2.5,2.5,0,0,1-1.154.258A2.337,2.337,0,0,1,128.442,99.341Zm.841-4.2a2.788,2.788,0,0,0-.495,1.793,3.107,3.107,0,0,0,.427,1.688,1.5,1.5,0,0,0,1.371.679,1.442,1.442,0,0,0,1.2-.63,2.969,2.969,0,0,0,.472-1.807,2.673,2.673,0,0,0-.486-1.76,1.515,1.515,0,0,0-1.2-.572A1.586,1.586,0,0,0,129.282,95.143Zm-7.374,4.227a3.314,3.314,0,0,1-.814-2.388,3.605,3.605,0,0,1,.82-2.455,2.709,2.709,0,0,1,2.145-.943,2.856,2.856,0,0,1,1.3.314,2.386,2.386,0,0,1,.955.811,2.807,2.807,0,0,1,.422,1.108,7.277,7.277,0,0,1,.094,1.382h-4.6a2.691,2.691,0,0,0,.451,1.533,1.513,1.513,0,0,0,1.307.577,1.688,1.688,0,0,0,1.319-.545,1.839,1.839,0,0,0,.4-.732h1.037a2.17,2.17,0,0,1-.273.77,2.722,2.722,0,0,1-.518.694,2.455,2.455,0,0,1-1.189.633,3.59,3.59,0,0,1-.861.094A2.641,2.641,0,0,1,121.909,99.37Zm.867-4.342a1.979,1.979,0,0,0-.521,1.333h3.486a2.714,2.714,0,0,0-.3-1.1,1.53,1.53,0,0,0-1.447-.762A1.606,1.606,0,0,0,122.775,95.028ZM105.238,99.37a3.318,3.318,0,0,1-.814-2.388,3.606,3.606,0,0,1,.821-2.455,2.709,2.709,0,0,1,2.145-.943,2.856,2.856,0,0,1,1.3.314,2.386,2.386,0,0,1,.955.811,2.806,2.806,0,0,1,.421,1.108,7.184,7.184,0,0,1,.094,1.382h-4.6a2.691,2.691,0,0,0,.451,1.533,1.513,1.513,0,0,0,1.307.577,1.689,1.689,0,0,0,1.319-.545,1.839,1.839,0,0,0,.4-.732h1.037a2.17,2.17,0,0,1-.273.77,2.721,2.721,0,0,1-.518.694,2.454,2.454,0,0,1-1.19.633,3.584,3.584,0,0,1-.861.094A2.643,2.643,0,0,1,105.238,99.37Zm.868-4.342a1.975,1.975,0,0,0-.521,1.333h3.486a2.728,2.728,0,0,0-.3-1.1,1.53,1.53,0,0,0-1.447-.762A1.606,1.606,0,0,0,106.105,95.028ZM92.564,99.37a3.318,3.318,0,0,1-.814-2.388,3.606,3.606,0,0,1,.821-2.455,2.709,2.709,0,0,1,2.145-.943,2.856,2.856,0,0,1,1.3.314,2.386,2.386,0,0,1,.955.811,2.806,2.806,0,0,1,.421,1.108,7.183,7.183,0,0,1,.095,1.382h-4.6a2.691,2.691,0,0,0,.451,1.533,1.513,1.513,0,0,0,1.307.577,1.689,1.689,0,0,0,1.318-.545,1.839,1.839,0,0,0,.4-.732h1.037a2.17,2.17,0,0,1-.273.77,2.721,2.721,0,0,1-.518.694,2.454,2.454,0,0,1-1.19.633,3.584,3.584,0,0,1-.861.094A2.643,2.643,0,0,1,92.564,99.37Zm.868-4.342a1.975,1.975,0,0,0-.521,1.333H96.4a2.728,2.728,0,0,0-.3-1.1A1.53,1.53,0,0,0,94.65,94.5,1.606,1.606,0,0,0,93.432,95.028ZM75.912,99.722a1.677,1.677,0,0,1-.264-.982V94.586H74.8v-.861h.85V91.973h1.066v1.751h1v.861h-1v4.1a.444.444,0,0,0,.222.44.958.958,0,0,0,.41.064l.164,0c.058,0,.127-.007.205-.014V100a2.444,2.444,0,0,1-.378.076,3.661,3.661,0,0,1-.425.023A1.144,1.144,0,0,1,75.912,99.722ZM117.05,100l-2.314-6.276h1.224l1.676,5.11,1.752-5.11h1.155L118.175,100Zm-5.572,0V93.724h1v1.084a2.394,2.394,0,0,1,.6-.77,1.563,1.563,0,0,1,1.107-.454c.02,0,.053,0,.1.006l.24.023v1.113a1.54,1.54,0,0,0-.173-.023c-.053,0-.111-.006-.173-.006a1.506,1.506,0,0,0-1.225.513,1.789,1.789,0,0,0-.427,1.181V100Zm-23.343,0V93.724h1v1.084a2.389,2.389,0,0,1,.6-.77,1.563,1.563,0,0,1,1.108-.454c.02,0,.052,0,.1.006l.239.023v1.113a1.486,1.486,0,0,0-.173-.023c-.052,0-.11-.006-.173-.006a1.5,1.5,0,0,0-1.224.513,1.79,1.79,0,0,0-.428,1.181V100Zm-15.34,0V96.045a2.217,2.217,0,0,0-.175-1.014,1.123,1.123,0,0,0-1.078-.516,1.794,1.794,0,0,0-1.19.452,2.168,2.168,0,0,0-.533,1.7V100H68.764V91.364h1.055v3.21a3.063,3.063,0,0,1,.674-.668,2.273,2.273,0,0,1,1.271-.334,1.882,1.882,0,0,1,1.852.955,3.264,3.264,0,0,1,.264,1.447V100Zm-13.371,0V93.754H60.5V100Zm-3.966,0V93.724h1v1.084a2.394,2.394,0,0,1,.6-.77,1.563,1.563,0,0,1,1.107-.454c.02,0,.053,0,.1.006l.24.023v1.113a1.539,1.539,0,0,0-.173-.023c-.053,0-.111-.006-.173-.006a1.5,1.5,0,0,0-1.225.513,1.789,1.789,0,0,0-.427,1.181V100Zm-6,0V91.392h1.055V100Zm-2.666,0V91.392h1.055V100Zm-2.227,0-.873-2.578h-3.4L39.355,100h-1.2l3.24-8.608h1.319L45.841,100Zm-3.943-3.527h2.695l-1.306-3.8Zm18.8-3.885v-1.2H60.5v1.2ZM81.309,88.2a1.768,1.768,0,0,1-.773-1.421h1.072a1.191,1.191,0,0,0,.3.651,1.929,1.929,0,0,0,2.713-.5,4.812,4.812,0,0,0,.205-1.8,2.083,2.083,0,0,1-.762.715,2.54,2.54,0,0,1-1.177.234,2.515,2.515,0,0,1-1.785-.724,3.183,3.183,0,0,1-.764-2.393,3.626,3.626,0,0,1,.77-2.462,2.384,2.384,0,0,1,1.86-.885,2.287,2.287,0,0,1,1.289.364,2.9,2.9,0,0,1,.609.6v-.791h.973V85.49a4.2,4.2,0,0,1-.352,1.887,2.524,2.524,0,0,1-2.479,1.277A3.036,3.036,0,0,1,81.309,88.2Zm.334-6.612a4.084,4.084,0,0,0-.217,1.459,2.59,2.59,0,0,0,.431,1.615,1.389,1.389,0,0,0,1.157.553,1.626,1.626,0,0,0,1.6-1.025,3.308,3.308,0,0,0,.257-1.354,2.617,2.617,0,0,0-.481-1.729,1.54,1.54,0,0,0-1.224-.562A1.513,1.513,0,0,0,81.643,81.588ZM68.31,88.555a2.65,2.65,0,0,1-.3-.065v-.96a3.722,3.722,0,0,0,.4.094,1.565,1.565,0,0,0,.217.017.758.758,0,0,0,.431-.1.88.88,0,0,0,.231-.238q.03-.046.211-.48c.121-.29.21-.5.264-.645l-2.32-6.457h1.2l1.682,5.109,1.693-5.109h1.166q-.223.6-.99,2.754-.575,1.617-.961,2.636a17.908,17.908,0,0,1-1.289,2.93,1.477,1.477,0,0,1-1.29.527A2.5,2.5,0,0,1,68.31,88.555ZM61.34,88.5V79.754h1.026v.832a2.556,2.556,0,0,1,.691-.662,2.227,2.227,0,0,1,1.254-.351,2.356,2.356,0,0,1,1.811.817,3.348,3.348,0,0,1,.744,2.335,3.583,3.583,0,0,1-1.073,2.929,2.418,2.418,0,0,1-1.582.557,2.146,2.146,0,0,1-1.189-.31,2.741,2.741,0,0,1-.627-.6V88.5Zm1.231-6.908a4.331,4.331,0,0,0-.217,1.488,3.148,3.148,0,0,0,.217,1.237,1.592,1.592,0,0,0,2.727.355,2.939,2.939,0,0,0,.49-1.849,3.457,3.457,0,0,0-.217-1.289,1.588,1.588,0,0,0-3,.059Zm45.094,3.322a6.007,6.007,0,0,1-.616-2.941,7.28,7.28,0,0,1,.369-2.455,2.526,2.526,0,0,1,2.5-1.91,2.478,2.478,0,0,1,2.355,1.342,6,6,0,0,1,.563,2.841,6.841,6.841,0,0,1-.509,2.831,2.5,2.5,0,0,1-2.414,1.6A2.417,2.417,0,0,1,107.664,84.916Zm.958-5.481a6.047,6.047,0,0,0-.43,2.58,6.337,6.337,0,0,0,.275,2.063,1.5,1.5,0,0,0,2.748.463,5.26,5.26,0,0,0,.486-2.706,6.7,6.7,0,0,0-.351-2.353,1.338,1.338,0,0,0-1.365-.923A1.428,1.428,0,0,0,108.622,79.435Zm-53.54,5.918A3.461,3.461,0,0,1,54.32,83a3.739,3.739,0,0,1,.8-2.519,2.692,2.692,0,0,1,2.156-.938,2.84,2.84,0,0,1,2.05.809,3.155,3.155,0,0,1,.838,2.379,4.079,4.079,0,0,1-.738,2.507,2.669,2.669,0,0,1-2.291.99A2.586,2.586,0,0,1,55.082,85.352Zm.762-4.151a3.415,3.415,0,0,0-.44,1.781,2.973,2.973,0,0,0,.44,1.669,1.546,1.546,0,0,0,1.394.668,1.454,1.454,0,0,0,1.438-.794,3.95,3.95,0,0,0,.39-1.767,3.148,3.148,0,0,0-.281-1.429,1.582,1.582,0,0,0-1.535-.868A1.513,1.513,0,0,0,55.844,81.2Zm-8.666,4.113a5.583,5.583,0,0,1-.334-6.832,3.68,3.68,0,0,1,3.005-1.325,3.527,3.527,0,0,1,2.537.861,3.041,3.041,0,0,1,1,1.957H52.252a2.373,2.373,0,0,0-.77-1.318,2.446,2.446,0,0,0-1.621-.486,2.6,2.6,0,0,0-2.053.893,4.072,4.072,0,0,0-.783,2.74,3.98,3.98,0,0,0,.707,2.452,2.468,2.468,0,0,0,2.106.94,2.225,2.225,0,0,0,1.963-.991,3.757,3.757,0,0,0,.534-1.371h1.137a3.881,3.881,0,0,1-1.008,2.279A3.584,3.584,0,0,1,49.7,86.223,3.648,3.648,0,0,1,47.178,85.315Zm47.4.407a1.68,1.68,0,0,1-.264-.981V80.586h-.85v-.861h.85V77.972h1.067v1.752h1v.861h-1v4.1a.442.442,0,0,0,.222.439.942.942,0,0,0,.41.065c.05,0,.105,0,.164,0s.127-.006.205-.014V86a2.305,2.305,0,0,1-.378.076,3.464,3.464,0,0,1-.425.023A1.144,1.144,0,0,1,94.58,85.721ZM123.144,86V80.059H121.17V79.25a4.3,4.3,0,0,0,1.594-.373,1.835,1.835,0,0,0,.674-1.233h.832V86Zm-9.421,0a4.885,4.885,0,0,1,.448-1.887,3.625,3.625,0,0,1,1.52-1.459L116.816,82a5.254,5.254,0,0,0,1.06-.75,1.539,1.539,0,0,0,.481-1.113,1.556,1.556,0,0,0-.439-1.163,1.6,1.6,0,0,0-1.172-.431,1.531,1.531,0,0,0-1.5.821A2.93,2.93,0,0,0,115,80.586h-1.073a3.76,3.76,0,0,1,.4-1.787,2.536,2.536,0,0,1,2.419-1.219,2.49,2.49,0,0,1,2.772,2.514,2.357,2.357,0,0,1-.709,1.723,6.926,6.926,0,0,1-1.471,1.008l-.8.445a5.231,5.231,0,0,0-.9.6A2.2,2.2,0,0,0,114.9,85h4.582v1Zm-13.348,0a4.885,4.885,0,0,1,.448-1.887,3.63,3.63,0,0,1,1.52-1.459L103.469,82a5.293,5.293,0,0,0,1.061-.75,1.636,1.636,0,0,0,.04-2.276,1.6,1.6,0,0,0-1.172-.431,1.532,1.532,0,0,0-1.5.821,2.944,2.944,0,0,0-.246,1.219H100.58a3.76,3.76,0,0,1,.4-1.787,2.537,2.537,0,0,1,2.42-1.219,2.49,2.49,0,0,1,2.771,2.514,2.353,2.353,0,0,1-.709,1.723A6.9,6.9,0,0,1,104,82.824l-.8.445a5.219,5.219,0,0,0-.9.6A2.2,2.2,0,0,0,101.552,85h4.583v1Zm-8.913,0V82.045a2.212,2.212,0,0,0-.175-1.013,1.123,1.123,0,0,0-1.078-.516,1.8,1.8,0,0,0-1.189.451,2.17,2.17,0,0,0-.534,1.705V86H87.431V77.363h1.055v3.211a3.023,3.023,0,0,1,.674-.668,2.267,2.267,0,0,1,1.272-.334,1.879,1.879,0,0,1,1.851.955,3.259,3.259,0,0,1,.264,1.447V86Zm-13.37,0V79.754h1.072V86Zm-3.967,0V79.725h1v1.084a2.417,2.417,0,0,1,.6-.77,1.566,1.566,0,0,1,1.107-.454q.03,0,.1.005l.24.023v1.113A1.485,1.485,0,0,0,77,80.7q-.08-.005-.173-.005a1.508,1.508,0,0,0-1.225.512,1.789,1.789,0,0,0-.427,1.181V86Zm3.967-7.412v-1.2h1.072v1.2ZM150.715,58.2a1.769,1.769,0,0,1-.773-1.421h1.072a1.188,1.188,0,0,0,.305.651,1.93,1.93,0,0,0,2.713-.5,4.818,4.818,0,0,0,.205-1.8,2.068,2.068,0,0,1-.762.715,2.73,2.73,0,0,1-2.962-.489,3.185,3.185,0,0,1-.764-2.394,3.623,3.623,0,0,1,.77-2.461,2.384,2.384,0,0,1,1.86-.885,2.28,2.28,0,0,1,1.289.364,2.856,2.856,0,0,1,.609.6v-.791h.973V55.49a4.2,4.2,0,0,1-.352,1.886,2.524,2.524,0,0,1-2.479,1.277A3.043,3.043,0,0,1,150.715,58.2Zm.334-6.612a4.081,4.081,0,0,0-.217,1.459,2.592,2.592,0,0,0,.431,1.615,1.389,1.389,0,0,0,1.157.553,1.626,1.626,0,0,0,1.6-1.025,3.308,3.308,0,0,0,.257-1.354,2.617,2.617,0,0,0-.481-1.729,1.536,1.536,0,0,0-1.224-.562A1.512,1.512,0,0,0,151.049,51.588Zm16.673,6.967a2.64,2.64,0,0,1-.3-.065v-.961a3.567,3.567,0,0,0,.4.095,1.555,1.555,0,0,0,.217.017.766.766,0,0,0,.431-.1.908.908,0,0,0,.231-.238q.03-.047.211-.481c.122-.289.209-.5.264-.644l-2.32-6.457h1.2l1.682,5.109,1.693-5.109h1.166q-.223.6-.99,2.753-.575,1.617-.961,2.637a17.842,17.842,0,0,1-1.289,2.93,1.474,1.474,0,0,1-1.29.527A2.55,2.55,0,0,1,167.721,58.555Zm-35.534-3.123a2.769,2.769,0,0,1-.891-2.209h1.1a2.348,2.348,0,0,0,.346,1.19,2.291,2.291,0,0,0,2.045.855,3.616,3.616,0,0,0,1.2-.187,1.328,1.328,0,0,0,1.043-1.3,1.126,1.126,0,0,0-.439-1,4.454,4.454,0,0,0-1.395-.509L134.022,52a5.273,5.273,0,0,1-1.617-.568,1.8,1.8,0,0,1-.821-1.612,2.485,2.485,0,0,1,.8-1.9,3.222,3.222,0,0,1,2.273-.743,3.956,3.956,0,0,1,2.3.653,2.358,2.358,0,0,1,.946,2.089h-1.1a2.151,2.151,0,0,0-.375-1.06,2.179,2.179,0,0,0-1.811-.674,2.094,2.094,0,0,0-1.482.434,1.358,1.358,0,0,0-.451,1.008.984.984,0,0,0,.527.926,7.779,7.779,0,0,0,1.564.468l1.207.275a3.71,3.71,0,0,1,1.348.545,2.041,2.041,0,0,1,.82,1.751,2.189,2.189,0,0,1-1.039,2.046,4.667,4.667,0,0,1-2.417.615A3.618,3.618,0,0,1,132.188,55.432ZM83.716,55.6a2.408,2.408,0,0,1-.625-1.573h1.014a1.532,1.532,0,0,0,.263.808,1.658,1.658,0,0,0,1.383.51,2.039,2.039,0,0,0,1.031-.256.845.845,0,0,0,.446-.788.674.674,0,0,0-.358-.616,4.272,4.272,0,0,0-.9-.3l-.838-.211a4.1,4.1,0,0,1-1.184-.445,1.33,1.33,0,0,1-.679-1.183,1.809,1.809,0,0,1,.641-1.442,2.562,2.562,0,0,1,1.726-.551,2.4,2.4,0,0,1,2.045.832,1.8,1.8,0,0,1,.381,1.137h-1a1.215,1.215,0,0,0-.252-.651,1.606,1.606,0,0,0-1.259-.416,1.508,1.508,0,0,0-.905.229.716.716,0,0,0-.308.6.745.745,0,0,0,.4.657,2.44,2.44,0,0,0,.691.257l.7.17a5.4,5.4,0,0,1,1.524.533,1.412,1.412,0,0,1,.615,1.272,1.936,1.936,0,0,1-.635,1.447,2.708,2.708,0,0,1-1.937.609A2.6,2.6,0,0,1,83.716,55.6Zm-67.36,0a2.408,2.408,0,0,1-.625-1.573h1.014a1.524,1.524,0,0,0,.264.808,1.655,1.655,0,0,0,1.382.51,2.039,2.039,0,0,0,1.031-.256.845.845,0,0,0,.445-.788.675.675,0,0,0-.357-.616,4.305,4.305,0,0,0-.9-.3l-.838-.211a4.1,4.1,0,0,1-1.184-.445,1.332,1.332,0,0,1-.679-1.183,1.807,1.807,0,0,1,.642-1.442,2.558,2.558,0,0,1,1.725-.551,2.394,2.394,0,0,1,2.045.832A1.8,1.8,0,0,1,20.7,51.53h-1a1.222,1.222,0,0,0-.252-.651,1.609,1.609,0,0,0-1.26-.416,1.508,1.508,0,0,0-.905.229.716.716,0,0,0-.308.6.745.745,0,0,0,.4.657,2.437,2.437,0,0,0,.692.257l.7.17a5.391,5.391,0,0,1,1.524.533,1.413,1.413,0,0,1,.616,1.272,1.937,1.937,0,0,1-.636,1.447,2.707,2.707,0,0,1-1.936.609A2.6,2.6,0,0,1,16.357,55.6Zm54.108-.252A3.461,3.461,0,0,1,69.7,53a3.744,3.744,0,0,1,.8-2.52,2.694,2.694,0,0,1,2.156-.937,2.839,2.839,0,0,1,2.05.808,3.156,3.156,0,0,1,.838,2.379,4.081,4.081,0,0,1-.738,2.508,2.672,2.672,0,0,1-2.291.99A2.587,2.587,0,0,1,70.465,55.353Zm.762-4.152a3.419,3.419,0,0,0-.44,1.781,2.974,2.974,0,0,0,.44,1.67,1.546,1.546,0,0,0,1.394.668,1.454,1.454,0,0,0,1.438-.794,3.952,3.952,0,0,0,.39-1.767,3.152,3.152,0,0,0-.281-1.43,1.583,1.583,0,0,0-1.535-.867A1.512,1.512,0,0,0,71.227,51.2ZM157.3,55.37a3.313,3.313,0,0,1-.814-2.388,3.611,3.611,0,0,1,.82-2.455,2.709,2.709,0,0,1,2.145-.943,2.856,2.856,0,0,1,1.3.314,2.386,2.386,0,0,1,.955.811,2.807,2.807,0,0,1,.422,1.108,7.277,7.277,0,0,1,.094,1.382h-4.6a2.684,2.684,0,0,0,.452,1.533,1.51,1.51,0,0,0,1.306.577,1.69,1.69,0,0,0,1.318-.544,1.838,1.838,0,0,0,.4-.733h1.037a2.171,2.171,0,0,1-.273.77,2.706,2.706,0,0,1-.518.694,2.447,2.447,0,0,1-1.189.633,3.585,3.585,0,0,1-.861.094A2.641,2.641,0,0,1,157.3,55.37Zm.867-4.342a1.981,1.981,0,0,0-.521,1.333h3.486a2.714,2.714,0,0,0-.3-1.1,1.532,1.532,0,0,0-1.447-.762A1.606,1.606,0,0,0,158.168,51.028ZM121.946,55.37a3.312,3.312,0,0,1-.814-2.388,3.611,3.611,0,0,1,.82-2.455,2.709,2.709,0,0,1,2.145-.943,2.853,2.853,0,0,1,1.3.314,2.386,2.386,0,0,1,.955.811,2.807,2.807,0,0,1,.422,1.108,7.276,7.276,0,0,1,.094,1.382h-4.6a2.684,2.684,0,0,0,.452,1.533,1.51,1.51,0,0,0,1.306.577,1.69,1.69,0,0,0,1.318-.544,1.838,1.838,0,0,0,.4-.733h1.037a2.185,2.185,0,0,1-.272.77,2.728,2.728,0,0,1-.519.694,2.443,2.443,0,0,1-1.189.633,3.585,3.585,0,0,1-.861.094A2.641,2.641,0,0,1,121.946,55.37Zm.867-4.342a1.985,1.985,0,0,0-.521,1.333h3.487a2.743,2.743,0,0,0-.3-1.1,1.534,1.534,0,0,0-1.448-.762A1.606,1.606,0,0,0,122.812,51.028ZM57.92,55.37a3.316,3.316,0,0,1-.814-2.388,3.607,3.607,0,0,1,.82-2.455,2.709,2.709,0,0,1,2.145-.943,2.856,2.856,0,0,1,1.3.314,2.386,2.386,0,0,1,.955.811,2.82,2.82,0,0,1,.422,1.108,7.277,7.277,0,0,1,.094,1.382h-4.6a2.691,2.691,0,0,0,.451,1.533,1.513,1.513,0,0,0,1.307.577,1.692,1.692,0,0,0,1.318-.544,1.849,1.849,0,0,0,.4-.733h1.037a2.17,2.17,0,0,1-.273.77,2.706,2.706,0,0,1-.518.694,2.447,2.447,0,0,1-1.189.633,3.6,3.6,0,0,1-.862.094A2.643,2.643,0,0,1,57.92,55.37Zm.868-4.342a1.977,1.977,0,0,0-.521,1.333h3.486a2.714,2.714,0,0,0-.3-1.1,1.532,1.532,0,0,0-1.447-.762A1.606,1.606,0,0,0,58.787,51.028ZM9.707,55.68a1.757,1.757,0,0,1-.554-1.327A1.709,1.709,0,0,1,9.7,53a2.593,2.593,0,0,1,1.429-.592l1.682-.211a.573.573,0,0,0,.486-.305.925.925,0,0,0,.07-.4.857.857,0,0,0-.383-.782,2.06,2.06,0,0,0-1.1-.243,1.4,1.4,0,0,0-1.172.445,1.46,1.46,0,0,0-.252.732H9.474a1.812,1.812,0,0,1,.753-1.614,3.087,3.087,0,0,1,1.679-.454,3.421,3.421,0,0,1,1.8.422,1.432,1.432,0,0,1,.686,1.312v3.615a.469.469,0,0,0,.067.264.326.326,0,0,0,.284.1,1.488,1.488,0,0,0,.158-.009c.059-.005.122-.014.187-.026v.779a2.926,2.926,0,0,1-.374.087,2.741,2.741,0,0,1-.352.018.866.866,0,0,1-.791-.387,1.5,1.5,0,0,1-.182-.58,2.68,2.68,0,0,1-.925.733,2.865,2.865,0,0,1-1.33.31A1.976,1.976,0,0,1,9.707,55.68Zm3.131-2.668a4.191,4.191,0,0,1-.6.117l-.638.082a2.456,2.456,0,0,0-.861.24.936.936,0,0,0-.487.879.871.871,0,0,0,.334.721,1.242,1.242,0,0,0,.791.264,2.4,2.4,0,0,0,1.078-.258,1.451,1.451,0,0,0,.879-1.4v-.85A1.825,1.825,0,0,1,12.838,53.012Zm24.973,2.464a2.465,2.465,0,0,1-.609-1.633,2.352,2.352,0,0,1,.591-1.634,6.511,6.511,0,0,1,1.354-1,4.38,4.38,0,0,1-.729-1.055,2.076,2.076,0,0,1-.185-.826,1.848,1.848,0,0,1,.563-1.38A2.067,2.067,0,0,1,40.3,47.4a1.88,1.88,0,0,1,1.4.51,1.673,1.673,0,0,1,.5,1.219,2.184,2.184,0,0,1-.522,1.447,4.892,4.892,0,0,1-1.02.838l1.571,1.875c.105-.312.179-.545.22-.7a6.523,6.523,0,0,0,.126-.647h1a6.377,6.377,0,0,1-.4,1.585,3.61,3.61,0,0,1-.283.632L44.414,56H43.055l-.809-.985a4.223,4.223,0,0,1-.878.762,3.047,3.047,0,0,1-1.606.422A2.414,2.414,0,0,1,37.811,55.476Zm.843-2.7a1.569,1.569,0,0,0-.386,1.073,1.232,1.232,0,0,0,.5,1.055,1.772,1.772,0,0,0,1.069.369,2.041,2.041,0,0,0,1.12-.3,2.452,2.452,0,0,0,.721-.668l-1.946-2.373A5.941,5.941,0,0,0,38.654,52.777Zm.733-4.06a.957.957,0,0,0-.129.486,1.311,1.311,0,0,0,.2.686,6.264,6.264,0,0,0,.653.85,4.478,4.478,0,0,0,.768-.639,1.318,1.318,0,0,0,.346-.885.942.942,0,0,0-.252-.656.877.877,0,0,0-.68-.275A.956.956,0,0,0,39.387,48.717Zm64.4,6.565a3.443,3.443,0,0,1-.733-2.247,3.788,3.788,0,0,1,.8-2.572,2.593,2.593,0,0,1,2.045-.92,2.738,2.738,0,0,1,1.726.516,2.472,2.472,0,0,1,.8,1.775H107.4a1.9,1.9,0,0,0-.428-.964,1.354,1.354,0,0,0-1.073-.383,1.482,1.482,0,0,0-1.441.985,3.9,3.9,0,0,0-.282,1.576,2.965,2.965,0,0,0,.4,1.588,1.545,1.545,0,0,0,2.294.243,2.211,2.211,0,0,0,.53-1.1h1.025a2.479,2.479,0,0,1-2.678,2.4A2.4,2.4,0,0,1,103.787,55.283Zm-39.352,0a3.448,3.448,0,0,1-.733-2.247,3.788,3.788,0,0,1,.8-2.572,2.593,2.593,0,0,1,2.045-.92,2.738,2.738,0,0,1,1.726.516,2.472,2.472,0,0,1,.8,1.775H68.051a1.9,1.9,0,0,0-.428-.964,1.354,1.354,0,0,0-1.073-.383,1.482,1.482,0,0,0-1.441.985,3.9,3.9,0,0,0-.282,1.576,2.965,2.965,0,0,0,.4,1.588,1.545,1.545,0,0,0,2.294.243,2.211,2.211,0,0,0,.53-1.1h1.025a2.479,2.479,0,0,1-2.678,2.4A2.4,2.4,0,0,1,64.436,55.283Zm-36.012,0a3.443,3.443,0,0,1-.733-2.247,3.788,3.788,0,0,1,.8-2.572,2.593,2.593,0,0,1,2.045-.92,2.738,2.738,0,0,1,1.726.516,2.472,2.472,0,0,1,.8,1.775H32.039a1.9,1.9,0,0,0-.427-.964,1.354,1.354,0,0,0-1.073-.383,1.482,1.482,0,0,0-1.441.985,3.9,3.9,0,0,0-.282,1.576,2.965,2.965,0,0,0,.4,1.588,1.545,1.545,0,0,0,2.294.243,2.211,2.211,0,0,0,.53-1.1h1.025a2.479,2.479,0,0,1-2.677,2.4A2.4,2.4,0,0,1,28.424,55.283Zm111.31-.009a2.673,2.673,0,0,1-.264-1.283V49.725h1.078V53.89a1.757,1.757,0,0,0,.153.786,1.061,1.061,0,0,0,1.048.563,1.483,1.483,0,0,0,1.5-.985,3.919,3.919,0,0,0,.217-1.447V49.725h1.054V56h-1l.012-.925a2.129,2.129,0,0,1-.51.6,2.24,2.24,0,0,1-1.464.492A1.891,1.891,0,0,1,139.734,55.274Zm-42.685,0a2.673,2.673,0,0,1-.264-1.283V49.725h1.078V53.89a1.758,1.758,0,0,0,.152.786,1.064,1.064,0,0,0,1.049.563,1.482,1.482,0,0,0,1.5-.985,3.9,3.9,0,0,0,.217-1.447V49.725h1.055V56h-1l.012-.925a2.127,2.127,0,0,1-.509.6,2.242,2.242,0,0,1-1.465.492A1.889,1.889,0,0,1,97.049,55.274Zm12.908.448a1.681,1.681,0,0,1-.263-.982V50.586h-.851v-.861h.851V47.973h1.066v1.752h1v.861h-1v4.1a.445.445,0,0,0,.223.44.958.958,0,0,0,.41.064l.164,0c.059,0,.127-.007.205-.014V56a2.445,2.445,0,0,1-.378.076,3.674,3.674,0,0,1-.425.023A1.147,1.147,0,0,1,109.957,55.722Zm-20,0a1.681,1.681,0,0,1-.264-.982V50.586h-.85v-.861h.85V47.973h1.067v1.752h1v.861h-1v4.1a.444.444,0,0,0,.222.44.958.958,0,0,0,.41.064l.164,0c.058,0,.127-.007.205-.014V56a2.4,2.4,0,0,1-.378.076,3.662,3.662,0,0,1-.425.023A1.144,1.144,0,0,1,89.953,55.722Zm-67.36,0a1.681,1.681,0,0,1-.264-.982V50.586h-.85v-.861h.85V47.973H23.4v1.752h1v.861h-1v4.1a.446.446,0,0,0,.222.44.964.964,0,0,0,.41.064l.165,0c.059,0,.127-.007.2-.014V56a2.4,2.4,0,0,1-.378.076,3.651,3.651,0,0,1-.425.023A1.145,1.145,0,0,1,22.594,55.722ZM163.541,56V49.725h1v1.084a2.388,2.388,0,0,1,.6-.77,1.567,1.567,0,0,1,1.108-.454c.019,0,.052,0,.1.006l.24.023v1.113a1.485,1.485,0,0,0-.173-.023c-.052,0-.111-.006-.173-.006a1.506,1.506,0,0,0-1.225.513,1.794,1.794,0,0,0-.427,1.181V56ZM146.2,56V49.725h1v1.084a2.388,2.388,0,0,1,.6-.77,1.567,1.567,0,0,1,1.108-.454c.019,0,.052,0,.1.006l.24.023v1.113a1.485,1.485,0,0,0-.173-.023c-.052,0-.11-.006-.173-.006a1.5,1.5,0,0,0-1.224.513,1.79,1.79,0,0,0-.428,1.181V56Zm-29.109,0-2.315-6.275H116l1.676,5.109,1.751-5.109h1.155L118.213,56Zm-4.271,0V49.754h1.072V56ZM92.842,56V49.725h1v1.084a2.4,2.4,0,0,1,.6-.77,1.567,1.567,0,0,1,1.108-.454c.02,0,.052,0,.1.006l.239.023v1.113a1.485,1.485,0,0,0-.173-.023c-.052,0-.11-.006-.173-.006a1.5,1.5,0,0,0-1.224.513,1.79,1.79,0,0,0-.428,1.181V56ZM80.848,56V52.045a2.138,2.138,0,0,0-.17-.926,1.03,1.03,0,0,0-1.02-.586,2.049,2.049,0,0,0-.615.076,1.576,1.576,0,0,0-.762.516,1.559,1.559,0,0,0-.343.641,4.359,4.359,0,0,0-.079.947V56H76.805V49.725h1v.89a2.811,2.811,0,0,1,.943-.791,2.515,2.515,0,0,1,1.107-.24,1.827,1.827,0,0,1,1.805.931,3.311,3.311,0,0,1,.257,1.46V56ZM54.791,56a1.084,1.084,0,0,1-.094-.287,5.455,5.455,0,0,1-.059-.679l-.07-1.436a1.208,1.208,0,0,0-.627-1.131,2.6,2.6,0,0,0-1.049-.157H50.238V56H49.073V47.392h3.984a3.982,3.982,0,0,1,1.623.287,2.033,2.033,0,0,1,1.213,2.034,2.285,2.285,0,0,1-.319,1.265,2.309,2.309,0,0,1-.894.791,1.754,1.754,0,0,1,.759.539,1.936,1.936,0,0,1,.284,1.084l.041,1.155a3.529,3.529,0,0,0,.082.732.719.719,0,0,0,.374.527V56Zm-4.553-4.664h2.7a2.26,2.26,0,0,0,1.3-.329,1.335,1.335,0,0,0,.478-1.183,1.271,1.271,0,0,0-.668-1.254,2.189,2.189,0,0,0-.956-.175H50.238ZM25.453,56V49.754h1.073V56ZM6.809,56V47.392H7.863V56ZM-.973,56V47.392H2.9a2.625,2.625,0,0,1,1.851.648,2.347,2.347,0,0,1,.7,1.819,2.645,2.645,0,0,1-.626,1.755,2.375,2.375,0,0,1-1.928.747H.194V56ZM.194,51.377h2.32a2.212,2.212,0,0,0,1.274-.335,1.323,1.323,0,0,0,.49-1.177,1.294,1.294,0,0,0-.7-1.289,2.529,2.529,0,0,0-1.06-.182H.194Zm112.623-2.789v-1.2h1.072v1.2Zm-87.364,0v-1.2h1.073v1.2ZM123.793,32l-.615-.507a11.762,11.762,0,0,1-3.295-11.473,12.755,12.755,0,0,1,9.62-8.638c3.955-.635,7.864.255,10.544,3.261a11.078,11.078,0,0,1,2.712,8.5l-14.969-.019a7.149,7.149,0,0,0,3.3,6.249,6.906,6.906,0,0,0,6.721-.209,5.193,5.193,0,0,0,2.262-3.391l2.814.029c-.242,3.729-3.758,7.594-7.581,8.653a11.993,11.993,0,0,1-3.175.426A14.216,14.216,0,0,1,123.793,32Zm5.033-16.767a10.711,10.711,0,0,0-1.068,5.4h6.575a10.7,10.7,0,0,0-1.071-5.4,2.591,2.591,0,0,0-4.436,0Zm-95.3,19.362a6.056,6.056,0,0,1-4.1-3.167,7.8,7.8,0,0,1-1-4.615V15.018H26.747v-3.03c2.079,0,4.226-.278,5.353-2.756a5.1,5.1,0,0,0,.941-3.5h3.785V12H40.6l.017,3.019H36.84L36.82,28.5a1.871,1.871,0,0,0,1.231,1.6c1.687.212,2.853-.891,3.872-2,0,1.018-.009,2.214.036,3.2a7.767,7.767,0,0,1-6.615,3.426A13.309,13.309,0,0,1,33.526,34.592Zm117.537-2.314.047-7.114,2.108-.032a9.093,9.093,0,0,0,5.976,7.146c1.624.129,3.648.425,4.57-1.184a2.669,2.669,0,0,0-.659-2.457c-3.612-3.144-9.842-3.344-11.469-8.725a5.953,5.953,0,0,1,.923-5.165c3.911-4.446,11.514-3.684,16.479-1.61l-.025,7.1-2.112,0a17.51,17.51,0,0,0-.324-1.761,6.884,6.884,0,0,0-5.667-4.573c-1.32.042-2.769.169-3.383,1.441-.176,1.311.922,2.371,2.02,3.047,3.91,2.964,11.162,3.43,11.47,9.655A7.384,7.384,0,0,1,167.632,33a13.119,13.119,0,0,1-6.849,1.7A21.269,21.269,0,0,1,151.063,32.278ZM.761,30.8l-.613-.425V20.516H3.366c0,4.887,3.225,8.113,7.061,9.876a8.039,8.039,0,0,0,6.391-.37c1.025-.687,1.249-1.239.936-2.314-1.516-2.407-4.011-3.6-6.6-4.986C6.941,20.464.973,18.328.094,13.438A8.435,8.435,0,0,1,4.2,4.885c5.4-3.7,14.627-3.654,20.113-.086l-.041,7.775H21.255a8.848,8.848,0,0,0-6.231-7.045c-2.186-.343-4.949-.472-6.288,1.548a2.309,2.309,0,0,0,.317,2.392,6.964,6.964,0,0,0,1.993,1.549c5.531,3.284,13.8,4.355,15.718,12.218.407,3.337-.455,6.117-3.131,8.223a16.036,16.036,0,0,1-9.766,2.975A27.155,27.155,0,0,1,.761,30.8ZM75.417,33.87c-3.5-1.73-3.78-5.069-3.78-8.925.019-1.285-.012-2.682-.012-3.946,0-1.318-.008-2.751-.011-3.935,0-.951-.115-1.168-.214-1.331a1.685,1.685,0,0,0-1.318-.968H68.974v-2.75H79.619l.015,15.177s0,.229,0,.567A1.868,1.868,0,0,0,80.823,29.3a2.754,2.754,0,0,0,2.23-.788,4.421,4.421,0,0,0,1.642-3.4l-.022-8.392a1.857,1.857,0,0,0-1.532-1.969H82.034V12.007h10.5l.047,16.672a2.8,2.8,0,0,0,1.072,1.9c.706.544.951.544,2.236.68v2.688H84.769l-.027-3.514c-1.992,2.171-4.018,3.83-6.836,3.83A8.677,8.677,0,0,1,75.417,33.87Zm-29.176.076A17.484,17.484,0,0,0,47.427,29.2l0-23.766a2.733,2.733,0,0,0-.994-2,3.6,3.6,0,0,0-2.067-.576V0H60.129v2.85a3.6,3.6,0,0,0-2.067.576,2.717,2.717,0,0,0-.986,2L57.1,31.395c3.878.116,6.986-.464,8.832-3.471A9.964,9.964,0,0,0,67,22.458h3.541V33.946Zm51.072-.017.005-26.666a2.377,2.377,0,0,0-.991-1.63A1.9,1.9,0,0,0,94.9,5.192l.008-2.749H105.3V19.311c2.148-2.24,4.677-3.325,4.677-7.3h9.27l0,2.722c-3.771,0-5.889,1.094-8,3.59l8.832,12.2a3.319,3.319,0,0,0,2.341,1.046v2.372h-9.473A11.491,11.491,0,0,0,111.5,31.12c-1.945-2.812-4.045-5.69-6.2-8.358v4.676c.012,1.564,0,2.709,1.335,3.705a3.735,3.735,0,0,0,1.6.425l-.024,2.377Z" transform="translate(0.973 13)" fill="#fff" stroke="rgba(0,0,0,0)" stroke-width="1"/>
    <path id="Star" d="M160.592,110.415l-4.437,1.513,1.713-4.535-13.55-2.589,13.5-2.39-1.753-4.566L160.68,99.6,163.2,86.338,165.713,99.6l4.615-1.756-1.751,4.566,13.5,2.39-13.549,2.589,1.714,4.535-4.438-1.513-2.607,32.52Zm2.6,13.022,1.059-15.36,3.129,1.068L166.33,106.1l7.163-1.28-7.157-1.213,1.015-2.962L164.307,102,163.2,94.982,162.085,102l-3.041-1.35,1.015,2.962-7.159,1.213,7.165,1.28-1.056,3.041,3.129-1.068Z" transform="translate(-15.064 -86.338)" fill="#fff"/>
  </g>
</svg>
